<mxfile host="app.diagrams.net" modified="2021-02-22T18:25:09.994Z" agent="5.0 (Windows NT 10.0; Win64; x64) AppleWebKit/537.36 (KHTML, like Gecko) Chrome/78.0.3904.97 Safari/537.36" etag="Yl4ZvAKzaMMIPBij9vVZ" version="14.4.2" type="github" pages="2">
  <diagram id="Bh1sf0Nj13foPq0vT2-O" name="Структура CSS">
    <mxGraphModel dx="1038" dy="580" grid="1" gridSize="10" guides="1" tooltips="1" connect="1" arrows="1" fold="1" page="1" pageScale="1" pageWidth="827" pageHeight="1169" math="0" shadow="0">
      <root>
        <mxCell id="0" />
        <mxCell id="1" parent="0" />
        <mxCell id="8361WRh86Bm2Yn1U7FbQ-1" value="Table" style="rounded=0;whiteSpace=wrap;html=1;fillColor=none;" parent="1" vertex="1">
          <mxGeometry x="120" y="40" width="640" height="360" as="geometry" />
        </mxCell>
        <mxCell id="8361WRh86Bm2Yn1U7FbQ-3" value="Excel" style="text;html=1;strokeColor=none;fillColor=none;align=center;verticalAlign=middle;whiteSpace=wrap;rounded=0;" parent="1" vertex="1">
          <mxGeometry x="120" y="20" width="40" height="20" as="geometry" />
        </mxCell>
        <mxCell id="8361WRh86Bm2Yn1U7FbQ-4" value="" style="rounded=0;whiteSpace=wrap;html=1;fillColor=none;" parent="1" vertex="1">
          <mxGeometry x="120" y="40" width="640" height="40" as="geometry" />
        </mxCell>
        <mxCell id="8361WRh86Bm2Yn1U7FbQ-5" value="Название" style="rounded=0;whiteSpace=wrap;html=1;fillColor=none;" parent="1" vertex="1">
          <mxGeometry x="120" y="50" width="210" height="20" as="geometry" />
        </mxCell>
        <mxCell id="8361WRh86Bm2Yn1U7FbQ-6" value="" style="rounded=0;whiteSpace=wrap;html=1;fillColor=none;" parent="1" vertex="1">
          <mxGeometry x="720" y="50" width="20" height="20" as="geometry" />
        </mxCell>
        <mxCell id="8361WRh86Bm2Yn1U7FbQ-7" value="" style="rounded=0;whiteSpace=wrap;html=1;fillColor=none;" parent="1" vertex="1">
          <mxGeometry x="690" y="50" width="20" height="20" as="geometry" />
        </mxCell>
        <mxCell id="8361WRh86Bm2Yn1U7FbQ-8" value="" style="rounded=0;whiteSpace=wrap;html=1;fillColor=none;" parent="1" vertex="1">
          <mxGeometry x="120" y="80" width="640" height="40" as="geometry" />
        </mxCell>
        <mxCell id="8361WRh86Bm2Yn1U7FbQ-20" style="edgeStyle=orthogonalEdgeStyle;rounded=0;orthogonalLoop=1;jettySize=auto;html=1;entryX=0;entryY=0.5;entryDx=0;entryDy=0;" parent="1" source="8361WRh86Bm2Yn1U7FbQ-9" target="8361WRh86Bm2Yn1U7FbQ-11" edge="1">
          <mxGeometry relative="1" as="geometry" />
        </mxCell>
        <mxCell id="8361WRh86Bm2Yn1U7FbQ-9" value="" style="rounded=0;whiteSpace=wrap;html=1;fillColor=none;" parent="1" vertex="1">
          <mxGeometry x="130" y="90" width="20" height="20" as="geometry" />
        </mxCell>
        <mxCell id="8361WRh86Bm2Yn1U7FbQ-21" style="edgeStyle=orthogonalEdgeStyle;rounded=0;orthogonalLoop=1;jettySize=auto;html=1;entryX=0;entryY=0.5;entryDx=0;entryDy=0;" parent="1" source="8361WRh86Bm2Yn1U7FbQ-11" target="8361WRh86Bm2Yn1U7FbQ-13" edge="1">
          <mxGeometry relative="1" as="geometry" />
        </mxCell>
        <mxCell id="8361WRh86Bm2Yn1U7FbQ-11" value="" style="rounded=0;whiteSpace=wrap;html=1;fillColor=none;" parent="1" vertex="1">
          <mxGeometry x="230" y="90" width="20" height="20" as="geometry" />
        </mxCell>
        <mxCell id="8361WRh86Bm2Yn1U7FbQ-22" style="edgeStyle=orthogonalEdgeStyle;rounded=0;orthogonalLoop=1;jettySize=auto;html=1;entryX=0;entryY=0.5;entryDx=0;entryDy=0;" parent="1" source="8361WRh86Bm2Yn1U7FbQ-13" target="8361WRh86Bm2Yn1U7FbQ-15" edge="1">
          <mxGeometry relative="1" as="geometry" />
        </mxCell>
        <mxCell id="8361WRh86Bm2Yn1U7FbQ-13" value="" style="rounded=0;whiteSpace=wrap;html=1;fillColor=none;" parent="1" vertex="1">
          <mxGeometry x="330" y="90" width="20" height="20" as="geometry" />
        </mxCell>
        <mxCell id="8361WRh86Bm2Yn1U7FbQ-24" style="edgeStyle=orthogonalEdgeStyle;rounded=0;orthogonalLoop=1;jettySize=auto;html=1;entryX=0;entryY=0.5;entryDx=0;entryDy=0;" parent="1" source="8361WRh86Bm2Yn1U7FbQ-15" target="8361WRh86Bm2Yn1U7FbQ-17" edge="1">
          <mxGeometry relative="1" as="geometry" />
        </mxCell>
        <mxCell id="8361WRh86Bm2Yn1U7FbQ-15" value="" style="rounded=0;whiteSpace=wrap;html=1;fillColor=none;" parent="1" vertex="1">
          <mxGeometry x="430" y="90" width="20" height="20" as="geometry" />
        </mxCell>
        <mxCell id="8361WRh86Bm2Yn1U7FbQ-25" style="edgeStyle=orthogonalEdgeStyle;rounded=0;orthogonalLoop=1;jettySize=auto;html=1;entryX=0;entryY=0.5;entryDx=0;entryDy=0;" parent="1" source="8361WRh86Bm2Yn1U7FbQ-17" target="8361WRh86Bm2Yn1U7FbQ-19" edge="1">
          <mxGeometry relative="1" as="geometry" />
        </mxCell>
        <mxCell id="8361WRh86Bm2Yn1U7FbQ-17" value="" style="rounded=0;whiteSpace=wrap;html=1;fillColor=none;" parent="1" vertex="1">
          <mxGeometry x="530" y="90" width="20" height="20" as="geometry" />
        </mxCell>
        <mxCell id="8361WRh86Bm2Yn1U7FbQ-19" value="" style="rounded=0;whiteSpace=wrap;html=1;fillColor=none;" parent="1" vertex="1">
          <mxGeometry x="630" y="90" width="20" height="20" as="geometry" />
        </mxCell>
        <mxCell id="8361WRh86Bm2Yn1U7FbQ-26" value="" style="rounded=0;whiteSpace=wrap;html=1;fillColor=none;" parent="1" vertex="1">
          <mxGeometry x="120" y="120" width="640" height="40" as="geometry" />
        </mxCell>
        <mxCell id="8361WRh86Bm2Yn1U7FbQ-27" value="fx" style="rounded=0;whiteSpace=wrap;html=1;fillColor=none;" parent="1" vertex="1">
          <mxGeometry x="120" y="120" width="40" height="40" as="geometry" />
        </mxCell>
        <mxCell id="8361WRh86Bm2Yn1U7FbQ-28" value="" style="rounded=0;whiteSpace=wrap;html=1;fillColor=none;" parent="1" vertex="1">
          <mxGeometry x="120" y="440" width="640" height="400" as="geometry" />
        </mxCell>
        <mxCell id="8361WRh86Bm2Yn1U7FbQ-29" value="Dashboard" style="text;html=1;strokeColor=none;fillColor=none;align=center;verticalAlign=middle;whiteSpace=wrap;rounded=0;" parent="1" vertex="1">
          <mxGeometry x="130" y="420" width="40" height="20" as="geometry" />
        </mxCell>
        <mxCell id="8361WRh86Bm2Yn1U7FbQ-30" value="Excel Dashboard" style="rounded=0;whiteSpace=wrap;html=1;fillColor=none;" parent="1" vertex="1">
          <mxGeometry x="120" y="440" width="640" height="40" as="geometry" />
        </mxCell>
        <mxCell id="8361WRh86Bm2Yn1U7FbQ-31" value="" style="rounded=0;whiteSpace=wrap;html=1;fillColor=none;" parent="1" vertex="1">
          <mxGeometry x="120" y="480" width="640" height="120" as="geometry" />
        </mxCell>
        <mxCell id="8361WRh86Bm2Yn1U7FbQ-32" value="+" style="rounded=0;whiteSpace=wrap;html=1;fillColor=none;" parent="1" vertex="1">
          <mxGeometry x="210" y="500" width="140" height="80" as="geometry" />
        </mxCell>
        <mxCell id="McrlcuIPDPFZixJVKzLu-7" style="edgeStyle=orthogonalEdgeStyle;rounded=0;orthogonalLoop=1;jettySize=auto;html=1;" parent="1" source="McrlcuIPDPFZixJVKzLu-1" target="McrlcuIPDPFZixJVKzLu-6" edge="1">
          <mxGeometry relative="1" as="geometry" />
        </mxCell>
        <mxCell id="McrlcuIPDPFZixJVKzLu-1" value="" style="rounded=0;whiteSpace=wrap;html=1;fillColor=none;" parent="1" vertex="1">
          <mxGeometry x="190" y="640" width="510" height="40" as="geometry" />
        </mxCell>
        <mxCell id="McrlcuIPDPFZixJVKzLu-2" value="Название таблицы" style="text;html=1;strokeColor=none;fillColor=none;align=center;verticalAlign=middle;whiteSpace=wrap;rounded=0;" parent="1" vertex="1">
          <mxGeometry x="205" y="650" width="40" height="20" as="geometry" />
        </mxCell>
        <mxCell id="McrlcuIPDPFZixJVKzLu-3" value="Дата открытия" style="text;html=1;strokeColor=none;fillColor=none;align=center;verticalAlign=middle;whiteSpace=wrap;rounded=0;" parent="1" vertex="1">
          <mxGeometry x="560" y="650" width="110" height="20" as="geometry" />
        </mxCell>
        <mxCell id="McrlcuIPDPFZixJVKzLu-4" value="Text" style="text;html=1;strokeColor=none;fillColor=none;align=center;verticalAlign=middle;whiteSpace=wrap;rounded=0;" parent="1" vertex="1">
          <mxGeometry x="200" y="610" width="40" height="20" as="geometry" />
        </mxCell>
        <mxCell id="McrlcuIPDPFZixJVKzLu-5" value="Text" style="text;html=1;strokeColor=none;fillColor=none;align=center;verticalAlign=middle;whiteSpace=wrap;rounded=0;" parent="1" vertex="1">
          <mxGeometry x="595" y="610" width="40" height="20" as="geometry" />
        </mxCell>
        <mxCell id="McrlcuIPDPFZixJVKzLu-6" value="" style="rounded=0;whiteSpace=wrap;html=1;fillColor=none;" parent="1" vertex="1">
          <mxGeometry x="190" y="700" width="510" height="40" as="geometry" />
        </mxCell>
        <mxCell id="McrlcuIPDPFZixJVKzLu-8" value="Header" style="text;html=1;strokeColor=none;fillColor=none;align=center;verticalAlign=middle;whiteSpace=wrap;rounded=0;" parent="1" vertex="1">
          <mxGeometry x="50" y="50" width="40" height="20" as="geometry" />
        </mxCell>
        <mxCell id="McrlcuIPDPFZixJVKzLu-9" value="Toolbar" style="text;html=1;strokeColor=none;fillColor=none;align=center;verticalAlign=middle;whiteSpace=wrap;rounded=0;" parent="1" vertex="1">
          <mxGeometry x="60" y="90" width="40" height="20" as="geometry" />
        </mxCell>
        <mxCell id="McrlcuIPDPFZixJVKzLu-10" value="Formula" style="text;html=1;strokeColor=none;fillColor=none;align=center;verticalAlign=middle;whiteSpace=wrap;rounded=0;" parent="1" vertex="1">
          <mxGeometry x="60" y="130" width="40" height="20" as="geometry" />
        </mxCell>
        <mxCell id="McrlcuIPDPFZixJVKzLu-11" value="Table" style="text;html=1;strokeColor=none;fillColor=none;align=center;verticalAlign=middle;whiteSpace=wrap;rounded=0;" parent="1" vertex="1">
          <mxGeometry x="60" y="260" width="40" height="20" as="geometry" />
        </mxCell>
      </root>
    </mxGraphModel>
  </diagram>
  <diagram id="81fbMncttsN75E2P6AMs" name=" Компоненты">
    <mxGraphModel dx="1038" dy="580" grid="1" gridSize="10" guides="1" tooltips="1" connect="1" arrows="1" fold="1" page="1" pageScale="1" pageWidth="827" pageHeight="1169" math="0" shadow="0">
      <root>
        <mxCell id="Lofi-L4fhnjghPMLTl3c-0" />
        <mxCell id="Lofi-L4fhnjghPMLTl3c-1" parent="Lofi-L4fhnjghPMLTl3c-0" />
      </root>
    </mxGraphModel>
  </diagram>
</mxfile>
